<svg xmlns="http://www.w3.org/2000/svg" width="2426" height="300" viewBox="0 0 2426 300">
  <defs>
    <linearGradient id="a" x1="0%" y1="50%" y2="50%">
      <stop offset="0%" stop-color="#D6871A"/>
      <stop offset="100%" stop-color="#E7B722"/>
    </linearGradient>
  </defs>
  <g fill="none" fill-rule="evenodd">
    <rect width="409" height="300" fill="url(#a)" rx="30"/>
    <path fill="#FFF" d="M76.7 204.3c0 2.5-1.3 3.7-3.8 3.7h-3.2c-2.5 0-3.7-1.2-3.7-3.7V92.7c0-2.5 1.2-3.7 3.7-3.7H73c2.4 0 3.7 1.2 3.7 3.7v111.6zm120.4 0c0 2.5-1.3 3.7-3.8 3.7h-2.9c-2.5 0-3.7-1.2-3.7-3.7v-47.5c0-9-2.2-16.1-6.6-21.3-4.5-5.2-11-7.7-19.4-7.7-8.2 0-14.7 2.5-19.6 7.6a29.8 29.8 0 0 0-7.3 21.4v47.5c0 2.5-1.2 3.7-3.7 3.7h-3c-2.4 0-3.7-1.2-3.7-3.7v-81c0-2.5 1.3-3.7 3.8-3.7h2.9c2.5 0 3.7 1.2 3.7 3.7v8c3-4 6.8-7.2 11-9.7a35 35 0 0 1 17.6-3.7c5.8 0 10.8 1 15.1 2.9a30 30 0 0 1 10.8 8c2.9 3.4 5 7.4 6.5 12 1.5 4.7 2.3 9.7 2.3 15.2v48.3zm59.3-25.4a28 28 0 0 0 3 14.2c2 3.4 5.5 5 10.6 5h9.2c2.5 0 3.7 1.3 3.7 3.8v2.4c0 2.5-1.2 3.7-3.7 3.7h-10c-4.5 0-8.2-.7-11.2-2.2-3-1.5-5.4-3.5-7.1-6-1.8-2.6-3-5.6-3.8-9-.7-3.5-1-7.2-1-11.2v-50.1h-13.3c-2.5 0-3.8-1.3-3.8-3.8v-2.4c0-2.5 1.3-3.7 3.8-3.7H246V91c0-2.5 1.3-3.7 3.8-3.7h2.8c2.5 0 3.8 1.2 3.8 3.7v28.6h21c2.6 0 3.8 1.2 3.8 3.7v2.4c0 2.5-1.2 3.8-3.7 3.8h-21.1v49.4zm71.6 25.4c0 2.5-1.3 3.7-3.8 3.7h-2.9c-2.5 0-3.7-1.2-3.7-3.7V91c0-2.5 1.2-3.7 3.7-3.7h3c2.4 0 3.6 1.2 3.6 3.7v113.3z"/>
    <path fill="#000" d="M549.3 89c12 0 21.4 2.8 28.5 8.5 7 5.7 10.6 14.3 10.6 25.8 0 9.2-2.2 16.5-6.7 21.9-4.5 5.4-10.8 9-19 11l27.4 46.5c.4.7.5 1.3.5 1.9 0 1-.3 1.7-1 2.4s-1.5 1-2.4 1h-2c-2 0-3.3-.5-4.2-1.4-.8-.9-1.6-2-2.3-3.2l-27-45.7h-35v46.6c0 2.5-1.3 3.7-4 3.7h-3c-2.5 0-3.7-1.2-3.7-3.7V92.9c0-2.6 1.2-3.9 3.7-3.9h39.6zm-32.6 58.5h31.8c19.5 0 29.2-8 29.2-24.2 0-16-9.7-24.1-29.2-24.1h-31.8v48.3zM624 157c.5-5.8 1.6-11 3.5-15.9 1.9-4.8 4.4-9 7.5-12.3a33 33 0 0 1 11.3-8 37 37 0 0 1 15-2.9c11.9 0 21.1 3.9 27.7 11.6a48.3 48.3 0 0 1 9.8 32.3v2.5c0 1.1-.3 2-1 2.7a4 4 0 0 1-2.9 1h-60.5v1.8a36.1 36.1 0 0 0 7.5 20.8c2.2 2.8 5 5 8.3 6.7 3.3 1.7 7 2.5 11 2.5a30.1 30.1 0 0 0 21.2-8.1c1.2-1.3 2-2.2 2.5-3 1-1.4 1.8-2.3 2.4-2.5.5-.3 1.4-.5 2.7-.5h2.7c1 0 2 .3 2.6 1 .8.6 1 1.4 1 2.4a13 13 0 0 1-2.7 6c-1.6 2.4-4 4.6-7 6.8a44 44 0 0 1-40.1 5 32.4 32.4 0 0 1-11.4-8 39 39 0 0 1-7.6-12.4 55.8 55.8 0 0 1-3.6-22.7l.1-6.8zm10.4 1.5h54v-.7c0-4.1-.6-8-1.8-11.8-1.3-3.6-3-6.8-5.4-9.6a24.2 24.2 0 0 0-8.5-6.3 27.5 27.5 0 0 0-11.4-2.3 24.6 24.6 0 0 0-19.8 8.7c-2.4 2.7-4.1 5.9-5.3 9.5a38.2 38.2 0 0 0-1.8 11.8v.7zm114.4 45.8c0 2.5-1.2 3.7-3.7 3.7h-3c-2.4 0-3.7-1.2-3.7-3.7V91c0-2.5 1.3-3.7 3.8-3.7h2.9c2.5 0 3.7 1.2 3.7 3.7v113.3zm102.4 3.7c-2.5 0-3.8-1.2-3.8-3.7v-8a27 27 0 0 1-10 9 39.9 39.9 0 0 1-20 4.4 34.6 34.6 0 0 1-21.4-7.3c-2.8-2.3-5-5-6.6-8-1.7-3-2.5-6.4-2.5-10 0-3.9.8-7.3 2.5-10.4 1.6-3 3.9-5.8 6.8-8 3-2.4 6.5-4.3 10.7-5.9 4.1-1.5 8.7-2.6 13.6-3.3l27-3.7v-6c0-6-2-10.8-5.6-14.2-3.7-3.4-9.6-5.1-17.6-5.1-6.4 0-11.3 1.2-14.7 3.6-3.5 2.5-5.7 5-6.6 8a6 6 0 0 1-1.6 2.7c-.6.5-1.4.8-2.4.8h-2.4c-1 0-2-.4-2.7-1.1a3.6 3.6 0 0 1-1-2.7c0-1.5.5-3.5 1.6-5.9 1.2-2.4 3-4.7 5.6-7a34.4 34.4 0 0 1 24.2-8.3c6.7 0 12.2 1 16.6 2.7a24.5 24.5 0 0 1 15.5 16.7c.9 3.5 1.4 7 1.4 10.4v56.6c0 2.5-1.3 3.7-3.8 3.7h-2.9zm-32.2-8.2c3.9 0 7.5-.6 11-2a25.4 25.4 0 0 0 15.2-15.6 40 40 0 0 0 2.2-14v-5.8l-22 3.1c-18.7 2.6-28.1 8.6-28.1 18 0 2.9.6 5.3 2 7.3 1.2 2 2.9 3.8 5 5.1 2 1.4 4.3 2.4 6.9 3 2.6.6 5.2 1 7.8 1zM918 179a28 28 0 0 0 3 14.2c2 3.4 5.5 5 10.6 5h9.2c2.5 0 3.7 1.3 3.7 3.8v2.4c0 2.5-1.2 3.7-3.7 3.7h-10c-4.5 0-8.2-.7-11.2-2.2-3-1.5-5.4-3.5-7.1-6-1.8-2.6-3-5.6-3.8-9-.7-3.5-1-7.2-1-11.2v-50.1h-13.3c-2.5 0-3.8-1.3-3.8-3.8v-2.4c0-2.5 1.3-3.7 3.8-3.7h13.2V91c0-2.5 1.3-3.7 3.8-3.7h2.9c2.4 0 3.7 1.2 3.7 3.7v28.6h21c2.6 0 3.8 1.2 3.8 3.7v2.4c0 2.5-1.2 3.8-3.7 3.8h-21.1v49.4zm73.3-81.2c0 1.1-.4 2-1.1 2.7a4 4 0 0 1-2.9 1h-6.4c-2.5 0-3.8-1.2-3.8-3.7v-6.5c0-1.1.4-2 1-2.8.8-.7 1.7-1.1 2.8-1.1h6.5a3.8 3.8 0 0 1 3.9 4v6.4zm-2 106.6c0 2.5-1.2 3.7-3.7 3.7h-2.8c-2.5 0-3.8-1.2-3.8-3.7v-81c0-2.5 1.3-3.7 3.8-3.7h2.8c2.5 0 3.8 1.2 3.8 3.7v81zm75 3.7c-1.8 0-3.1-.4-4.1-1.2-1-.8-1.7-1.8-2.3-3l-31.3-79a6 6 0 0 1-.3-1.8c0-1 .3-1.7 1-2.4s1.5-1 2.4-1h3.6c1 0 2 .3 2.5 1 .6.6 1 1.1 1.2 1.6l28.7 73.4 28.8-73.4c.2-.5.6-1 1.1-1.7.6-.6 1.5-.9 2.6-.9h3.6c.9 0 1.7.3 2.3 1 .7.7 1 1.5 1 2.4a6 6 0 0 1-.3 1.9l-31.3 78.8a8.4 8.4 0 0 1-2.3 3.1c-1 .8-2.3 1.2-4.1 1.2h-2.7zm70.3-51c.4-5.8 1.6-11 3.5-15.9 1.8-4.8 4.3-9 7.4-12.3a33 33 0 0 1 11.3-8 37 37 0 0 1 15-2.9c11.9 0 21.1 3.9 27.7 11.6a48.3 48.3 0 0 1 9.9 32.3v2.5c0 1.1-.4 2-1.1 2.7a4 4 0 0 1-2.8 1h-60.6v1.8a36.1 36.1 0 0 0 7.5 20.8c2.3 2.8 5 5 8.4 6.7 3.2 1.7 7 2.5 11 2.5a30.1 30.1 0 0 0 21.2-8.1c1.2-1.3 2-2.2 2.4-3 1-1.4 1.8-2.3 2.4-2.5.6-.3 1.5-.5 2.7-.5h2.8c1 0 1.8.3 2.6 1 .7.6 1 1.4 1 2.4a13 13 0 0 1-2.7 6c-1.7 2.4-4 4.6-7 6.8a44 44 0 0 1-40.2 5 32.4 32.4 0 0 1-11.4-8 39 39 0 0 1-7.5-12.4 55.8 55.8 0 0 1-3.7-22.7c0-2.8 0-5.1.2-6.8zm10.3 1.5h54.1v-.7c0-4.1-.6-8-1.9-11.8-1.2-3.6-3-6.8-5.3-9.6a24.2 24.2 0 0 0-8.6-6.3 27.5 27.5 0 0 0-11.4-2.3 24.6 24.6 0 0 0-19.8 8.7c-2.3 2.7-4 5.9-5.3 9.5a38.2 38.2 0 0 0-1.8 11.8v.7zM1377.6 89c2.6 0 3.9 1.3 3.9 4v2.5c0 2.5-1.3 3.7-4 3.7h-33.4v105c0 2.6-1.3 3.8-4 3.8h-3c-2.5 0-3.7-1.2-3.7-3.7V99.2h-33.7c-2.5 0-3.7-1.2-3.7-3.7v-2.6c0-2.6 1.2-3.9 3.7-3.9h77.9zm51.5 8.7c0 1.1-.4 2-1.1 2.7a4 4 0 0 1-2.8 1h-6.5c-2.5 0-3.7-1.2-3.7-3.7v-6.5c0-1.1.3-2 1-2.8.7-.7 1.6-1.1 2.7-1.1h6.5a3.8 3.8 0 0 1 3.9 4v6.4zm-1.9 106.6c0 2.5-1.2 3.7-3.7 3.7h-3c-2.4 0-3.7-1.2-3.7-3.7v-81c0-2.5 1.3-3.7 3.8-3.7h2.9c2.5 0 3.7 1.2 3.7 3.7v81zm55-75c2.8-3.6 6.1-6.4 10-8.4 3.8-2 8.6-3 14.2-3 6.5 0 12 1.4 16.5 4 4.6 2.8 8.1 6.8 10.7 12a29 29 0 0 1 11.5-11.7c5-2.9 10.9-4.3 17.4-4.3 4.6 0 8.8.8 12.6 2.4a28 28 0 0 1 10 7c2.9 3 5.1 6.8 6.8 11.4 1.6 4.6 2.4 10 2.4 16v49.6c0 2.5-1.2 3.7-3.7 3.7h-3c-2.4 0-3.6-1.2-3.6-3.7v-47.8c0-5.6-.7-10.2-2-13.9a23 23 0 0 0-5-8.8 18 18 0 0 0-7.4-4.7 28 28 0 0 0-8.8-1.3c-2.6 0-5.2.4-7.9 1.3a19 19 0 0 0-7.3 4.7 24 24 0 0 0-5.3 8.8c-1.4 3.7-2 8.3-2 13.9v47.8c0 2.5-1.3 3.7-3.8 3.7h-3c-2.4 0-3.7-1.2-3.7-3.7v-47.8c0-5.6-.6-10.2-2-13.9a24.8 24.8 0 0 0-5.3-8.8 18 18 0 0 0-7.4-4.7 24.4 24.4 0 0 0-16.3 0 19 19 0 0 0-7.3 4.7c-2.2 2.2-4 5.1-5.3 8.8-1.4 3.6-2 8.2-2 13.7v48c0 2.5-1.3 3.7-3.8 3.7h-3c-2.4 0-3.7-1.2-3.7-3.7v-81c0-2.5 1.3-3.7 3.8-3.7h2.9c2.5 0 3.7 1.2 3.7 3.7v6zm151.4 27.7c.4-5.8 1.6-11 3.5-15.9 1.8-4.8 4.3-9 7.5-12.3a33 33 0 0 1 11.3-8 37 37 0 0 1 15-2.9c11.8 0 21 3.9 27.6 11.6a48.3 48.3 0 0 1 9.9 32.3v2.5c0 1.1-.4 2-1.1 2.7a4 4 0 0 1-2.8 1H1644v1.8a36.1 36.1 0 0 0 7.4 20.8c2.3 2.8 5 5 8.4 6.7 3.3 1.7 7 2.5 11 2.5a30.1 30.1 0 0 0 21.2-8.1c1.2-1.3 2-2.2 2.5-3 1-1.4 1.8-2.3 2.3-2.5.6-.3 1.5-.5 2.8-.5h2.7c1 0 1.9.3 2.6 1 .7.6 1 1.4 1 2.4a13 13 0 0 1-2.7 6c-1.6 2.4-4 4.6-7 6.8a44 44 0 0 1-40.2 5 32.4 32.4 0 0 1-11.4-8 39 39 0 0 1-7.5-12.4 55.8 55.8 0 0 1-3.7-22.7c0-2.8 0-5.1.2-6.8zm10.4 1.5h54v-.7c0-4.1-.6-8-1.8-11.8-1.3-3.6-3-6.8-5.4-9.6a24.2 24.2 0 0 0-8.6-6.3 27.5 27.5 0 0 0-11.4-2.3 24.6 24.6 0 0 0-19.8 8.7c-2.3 2.7-4 5.9-5.3 9.5a38.2 38.2 0 0 0-1.7 11.8v.7zM1880.3 89c2.6 0 3.9 1.3 3.9 4v2.5c0 2.5-1.3 3.7-4 3.7h-58.6v45.7h55.3c2.6 0 3.9 1.3 3.9 4v2.5c0 2.5-1.3 3.7-4 3.7h-55.2v49.2c0 2.5-1.3 3.7-3.9 3.7h-3c-2.6 0-3.8-1.2-3.8-3.7V92.9c0-2.6 1.2-3.9 3.7-3.9h65.7zm74 28.9c6 0 11.4 1 16 3a32.7 32.7 0 0 1 18.8 20.5 53.5 53.5 0 0 1 3 18.5 86.2 86.2 0 0 1-.1 11 53.5 53.5 0 0 1-2.9 15.3 32.7 32.7 0 0 1-18.8 20.5c-4.6 2-10 3-16 3-6.2 0-11.6-1-16.2-3a32.7 32.7 0 0 1-19-20.5 48.2 48.2 0 0 1-2.7-18.4 92 92 0 0 1 0-11.1c.2-5.5 1-10.6 2.8-15.3a32.7 32.7 0 0 1 18.9-20.5c4.6-2 10-3 16.1-3zm27.3 39.6c-.4-9.7-3-17.1-8-22.2a26 26 0 0 0-19.4-7.5 26 26 0 0 0-19.4 7.5c-5 5-7.6 12.5-8 22.2a97.1 97.1 0 0 0 0 12.6c.4 9.7 3 17.1 8 22.2a26 26 0 0 0 19.4 7.5 26 26 0 0 0 19.4-7.5c5-5 7.6-12.5 8-22.2a97.1 97.1 0 0 0 0-12.6zm61.2-26.2c4-7.8 11.8-11.7 23.1-11.7h6.3c2.5 0 3.7 1.2 3.7 3.7v2.4c0 2.5-1.2 3.8-3.7 3.8h-7.3c-6.8 0-12.2 2-16.2 6-4 3.9-6 9.3-6 16v52.8c0 1-.3 2-1 2.7a4 4 0 0 1-2.8 1h-2.8c-2.4 0-3.7-1.2-3.7-3.7v-80.8c0-1.1.3-2 1-2.8.7-.7 1.6-1.1 2.8-1.1h2.7a3.8 3.8 0 0 1 3.9 4v7.7zm76.1-2c2.9-3.6 6.2-6.4 10-8.4 4-2 8.7-3 14.3-3 6.5 0 12 1.4 16.5 4 4.6 2.8 8.1 6.8 10.8 12a29 29 0 0 1 11.4-11.7c5-2.9 10.9-4.3 17.4-4.3 4.6 0 8.8.8 12.6 2.4a28 28 0 0 1 10 7c2.9 3 5.1 6.8 6.8 11.4 1.6 4.6 2.4 10 2.4 16v49.6c0 2.5-1.2 3.7-3.7 3.7h-2.9c-2.5 0-3.7-1.2-3.7-3.7v-47.8c0-5.6-.7-10.2-1.9-13.9a23 23 0 0 0-5.1-8.8 18 18 0 0 0-7.4-4.7 28 28 0 0 0-8.8-1.3c-2.6 0-5.2.4-7.9 1.3a19 19 0 0 0-7.3 4.7 24 24 0 0 0-5.3 8.8c-1.4 3.7-2 8.3-2 13.9v47.8c0 2.5-1.3 3.7-3.8 3.7h-2.9c-2.5 0-3.7-1.2-3.7-3.7v-47.8c0-5.6-.7-10.2-2-13.9a24.8 24.8 0 0 0-5.3-8.8 18 18 0 0 0-7.4-4.7 24.4 24.4 0 0 0-16.3 0 19 19 0 0 0-7.4 4.7c-2.2 2.2-4 5.1-5.3 8.8-1.4 3.6-2 8.2-2 13.7v48c0 2.5-1.3 3.7-3.8 3.7h-2.9c-2.5 0-3.7-1.2-3.7-3.7v-81c0-2.5 1.2-3.7 3.7-3.7h2.9c2.5 0 3.7 1.2 3.7 3.7v6zm213.6 78.7c-2.5 0-3.8-1.2-3.8-3.7v-8a27 27 0 0 1-10 9 39.9 39.9 0 0 1-20 4.4 34.6 34.6 0 0 1-21.4-7.3c-2.8-2.3-5-5-6.6-8-1.7-3-2.5-6.4-2.5-10 0-3.9.8-7.3 2.5-10.4 1.6-3 3.9-5.8 6.9-8 2.9-2.4 6.4-4.3 10.6-5.9 4.1-1.5 8.7-2.6 13.7-3.3l26.8-3.7v-6c0-6-1.8-10.8-5.5-14.2-3.7-3.4-9.6-5.1-17.6-5.1-6.3 0-11.2 1.2-14.7 3.6-3.5 2.5-5.6 5-6.6 8a6 6 0 0 1-1.6 2.7c-.6.5-1.4.8-2.4.8h-2.4c-1 0-2-.4-2.6-1.1a3.6 3.6 0 0 1-1.2-2.7c0-1.5.6-3.5 1.8-5.9 1-2.4 3-4.7 5.5-7a34.4 34.4 0 0 1 24.2-8.3c6.7 0 12.2 1 16.6 2.7a24.5 24.5 0 0 1 15.5 16.7c1 3.5 1.4 7 1.4 10.4v56.6c0 2.5-1.3 3.7-3.8 3.7h-2.8zm-32.2-8.2c3.9 0 7.5-.6 11-2a25.4 25.4 0 0 0 15.2-15.6 40 40 0 0 0 2.2-14v-5.8l-22 3.1c-18.7 2.6-28.1 8.6-28.1 18 0 2.9.6 5.3 2 7.3 1.2 2 2.9 3.8 5 5.1 2 1.4 4.3 2.4 7 3 2.5.6 5.1 1 7.7 1zm98.8-20.9a28 28 0 0 0 3 14.2c2 3.4 5.5 5 10.6 5h9.2c2.5 0 3.7 1.3 3.7 3.8v2.4c0 2.5-1.2 3.7-3.7 3.7h-10c-4.5 0-8.2-.7-11.2-2.2-3-1.5-5.4-3.5-7.1-6-1.8-2.6-3-5.6-3.8-9-.7-3.5-1-7.2-1-11.2v-50.1h-13.3c-2.5 0-3.8-1.3-3.8-3.8v-2.4c0-2.5 1.3-3.7 3.8-3.7h13.2V91c0-2.5 1.3-3.7 3.8-3.7h2.9c2.5 0 3.7 1.2 3.7 3.7v28.6h21c2.6 0 3.8 1.2 3.8 3.7v2.4c0 2.5-1.2 3.8-3.7 3.8H2399v49.4z"/>
  </g>
</svg>
